<svg width="140" height="140" viewBox="0 0 140 140" fill="none" xmlns="http://www.w3.org/2000/svg">
<path d="M140 70C140 108.66 108.66 140 70 140C31.3401 140 0 108.66 0 70C0 31.3401 31.3401 0 70 0C108.66 0 140 31.3401 140 70Z" fill="#6BCBF0"/>
<mask id="mask0_107_1132" style="mask-type:alpha" maskUnits="userSpaceOnUse" x="0" y="0" width="140" height="140">
<circle cx="70" cy="70" r="70" fill="#D9D9D9"/>
</mask>
<g mask="url(#mask0_107_1132)">
<g clip-path="url(#clip0_107_1132)">
<path d="M71.516 25.0092C81.499 25.1587 89.8316 28.8265 96.3903 36.1622C97.2855 37.1648 97.1763 38.5538 96.1766 39.3862C95.2244 40.1796 93.8067 40.0784 92.9305 39.0919C90.5463 36.4105 87.7799 34.1891 84.5409 32.5426C74.3822 27.3801 62.2312 28.6448 53.4807 35.815C52.2744 36.8038 51.201 37.949 50.1134 39.0666C49.1707 40.0347 47.7816 40.1888 46.7866 39.3586C45.8035 38.5377 45.7299 37.1418 46.6251 36.1346C52.1224 29.9648 59.0397 26.3154 67.3794 25.2001C68.0324 25.1127 68.6902 25.0437 69.348 25.0161C70.0722 24.9839 70.7941 25.0092 71.516 25.0092Z" fill="#263238"/>
<path d="M72.3418 33.9729C78.6512 34.1316 84.5854 36.7416 89.2516 41.9663C90.1729 42.9965 90.0637 44.3256 89.0426 45.1765C88.069 45.9859 86.6609 45.8779 85.7632 44.8683C83.3269 42.1387 80.3752 40.1358 76.7753 39.193C69.44 37.2774 63.0974 39.0251 57.7853 44.2842C57.5882 44.4797 57.4054 44.689 57.2178 44.8936C56.3415 45.8503 54.9239 45.979 53.9645 45.188C52.9529 44.3532 52.8484 42.9758 53.7342 41.9686C55.8144 39.5931 58.2911 37.7051 61.1715 36.3208C64.439 34.7502 67.8989 33.9867 72.3418 33.9729Z" fill="#263238"/>
<path d="M82.7237 49.2629C82.7237 50.1942 82.1419 51.0174 81.249 51.3532C80.349 51.6935 79.3517 51.4659 78.6773 50.7277C77.6847 49.64 76.5401 48.7592 75.1533 48.1913C71.3658 46.6367 67.1865 47.6026 64.3678 50.684C63.7005 51.4153 62.8646 51.6797 61.9029 51.3969C60.9768 51.1255 60.4401 50.477 60.2976 49.5526C60.1979 48.8995 60.3998 48.32 60.8343 47.8141C65.6596 42.1801 74.5359 41.3822 80.3419 46.0802C81.0021 46.6137 81.6218 47.2116 82.168 47.8532C82.4886 48.2303 82.6263 48.7523 82.8472 49.21C82.8044 49.2261 82.764 49.2445 82.7237 49.2629Z" fill="#263238"/>
<path d="M71.5084 60.9999C68.92 61.0022 66.8636 59.0131 66.866 56.5088C66.8683 54.0437 68.9366 52.0407 71.487 52.0315C74.0516 52.0223 76.1318 54.0414 76.1247 56.5341C76.1199 59.0154 74.0706 60.9976 71.5084 60.9999Z" fill="#263238"/>
</g>
<rect x="3" y="93.3992" width="135.273" height="46.4369" rx="20.0821" fill="#008ACB"/>
<rect x="32" y="47" width="9" height="62" rx="4.5" fill="#008ACB"/>
<rect x="99" y="47" width="9" height="62" rx="4.5" fill="#008ACB"/>
<rect x="78.532" y="111" width="12.114" height="56.5319" rx="6.05699" transform="rotate(90 78.532 111)" fill="#6BCBF0"/>
<rect x="96.7031" y="111" width="12.114" height="12.114" rx="6.05699" transform="rotate(90 96.7031 111)" fill="#E5F7FF"/>
<rect x="112.105" y="111.75" width="10.614" height="10.614" rx="5.30699" transform="rotate(90 112.105 111.75)" fill="#008ACB" stroke="#6BCBF0" stroke-width="1.5"/>
</g>
<defs>
<clipPath id="clip0_107_1132">
<rect width="51" height="36" fill="white" transform="translate(46 25)"/>
</clipPath>
</defs>
</svg>
