<svg width="140" height="140" viewBox="0 0 140 140" fill="none" xmlns="http://www.w3.org/2000/svg">
<mask id="mask0_107_1210" style="mask-type:alpha" maskUnits="userSpaceOnUse" x="0" y="0" width="140" height="140">
<circle cx="70" cy="70" r="70" fill="#D9D9D9"/>
</mask>
<g mask="url(#mask0_107_1210)">
<rect x="-59.7916" y="-3.646" width="258.125" height="87.5" fill="#008ACB"/>
<line x1="-63.4374" y1="20.6455" x2="202.708" y2="20.6455" stroke="#006392"/>
<line x1="-65.6249" y1="7.52051" x2="200.521" y2="7.52051" stroke="#006392"/>
<line x1="-64.1666" y1="33.0415" x2="201.979" y2="33.0415" stroke="#006392"/>
<line x1="22.1042" y1="61.979" x2="22.1042" y2="0.729004" stroke="#006392"/>
<line x1="54.1876" y1="61.2498" x2="54.1876" y2="-0.000244117" stroke="#006392"/>
<line x1="86.2709" y1="61.979" x2="86.2709" y2="0.729004" stroke="#006392"/>
<line x1="115.438" y1="61.979" x2="115.438" y2="0.729004" stroke="#006392"/>
<line x1="7.52094" y1="61.979" x2="7.52093" y2="0.729004" stroke="#006392"/>
<line x1="38.8751" y1="61.979" x2="38.8751" y2="0.729004" stroke="#006392"/>
<line x1="70.2292" y1="61.979" x2="70.2292" y2="-7.29183" stroke="#006392"/>
<line x1="101.583" y1="61.979" x2="101.583" y2="-7.29183" stroke="#006392"/>
<line x1="132.938" y1="61.979" x2="132.938" y2="-7.29183" stroke="#006392"/>
<line x1="-64.1666" y1="45.4373" x2="201.979" y2="45.4373" stroke="#006392"/>
<path d="M2.14004 58.1431C-24.5885 44.8286 -54.4236 56.2227 -66.0001 63.5841V150H207V56.2226C200.992 65.0776 181.502 78.9469 151.609 63.5841C121.715 48.2213 88.4508 53.5556 75.5555 58.1431C62.2206 63.6908 28.8685 71.4576 2.14004 58.1431Z" fill="#91D3ED"/>
<path d="M-35.3751 82.6227C-49.9584 76.7893 -57.4931 79.4629 -59.4376 81.5289V156.268H199.052V86.2683C194.434 80.7995 181.552 71.6121 166.969 78.6122C152.385 85.6123 139.99 83.2303 135.615 81.1643C115.927 72.4143 101.344 77.883 99.1562 78.6122C96.9687 79.3414 69.6249 86.2684 53.9479 81.1642C41.4062 77.0809 24.6597 78.4906 17.8541 79.7059C6.18744 83.1087 -20.7917 88.456 -35.3751 82.6227Z" fill="#77C5E3"/>
<path d="M-34.9998 110.079C-49.5832 104.246 -57.1179 106.92 -59.0623 108.986V183.725H199.427V113.725C194.809 108.256 181.927 99.0689 167.344 106.069C152.761 113.069 140.365 110.687 135.99 108.621C116.302 99.8711 101.719 105.34 99.5314 106.069C97.3439 106.798 70.0002 113.725 54.3231 108.621C41.7814 104.538 25.0349 105.947 18.2293 107.163C6.56268 110.565 -20.4165 115.913 -34.9998 110.079Z" fill="#4CB2DA"/>
<path d="M-40.9827 72.2045C-40.9827 72.2045 -38.3996 68.8076 -26.8343 71.916C-15.269 75.0113 -4.93635 79.8117 12.1624 73.6079C19.4268 70.8799 26.0617 69.4765 32.0935 71.693C25.0783 68.742 20.7774 69.4109 5.39634 74.4211C-3.33661 76.782 -14.6527 73.9752 -20.9336 72.139C-27.2014 70.2765 -36.5507 68.1386 -40.9827 72.2045Z" fill="white"/>
<path d="M101.879 70.1188C101.879 70.1188 107.91 66.0267 120.748 69.4499C133.598 72.8732 139.616 73.3453 151.824 68.4007C162.931 64.2167 167.205 65.7382 173.552 67.7318C179.898 69.7254 186.074 70.8664 190.991 68.1121C185.445 69.345 181.157 67.4432 175.925 65.6332C170.693 63.8232 164.95 62.4854 149.28 67.7318C141.033 70.4861 136.43 71.0632 123.436 68.1121C114.414 66.3153 106.324 66.1185 101.879 70.1188Z" fill="white"/>
<path d="M184.658 76.2704C176.672 73.2537 159.167 81.4642 153.594 82.4741C148.021 83.4841 140.77 82.9725 127.658 77.9492C114.545 72.9258 100.331 77.7787 88.3593 80.5068C76.4007 83.2349 63.2357 82.3036 47.3695 79.3132C31.5033 76.3228 21.3936 78.1197 0.479057 82.802C-20.4354 87.4844 -34.9379 81.4642 -44.9821 78.9591C-51.0008 77.4508 -55.6164 78.5919 -58.3438 79.746V80.9134C-55.6164 79.7592 -51.0008 78.6181 -44.969 80.1133C-34.9248 82.6184 -20.4223 88.6517 0.492165 83.9562C21.4067 79.2739 31.5164 77.477 47.3826 80.4674C63.2488 83.4578 76.4007 84.389 88.3724 81.661C100.331 78.9329 114.558 74.08 127.671 79.1034C140.783 84.1267 148.035 84.6251 153.607 83.6283C159.18 82.6184 176.685 74.4079 184.671 77.4246C191.594 80.0477 193.994 82.2905 204.169 79.6542V78.4869C193.968 81.1232 191.581 78.8935 184.658 76.2704Z" fill="white"/>
<path d="M-54.9344 77.2561C-54.9344 77.2561 -50.8826 73.5444 -42.4906 76.5348C-34.0985 79.5252 -29.9287 82.2533 -17.3669 78.7251C-4.8051 75.2101 1.06932 73.3607 9.43512 74.2788C3.00998 72.8492 -4.66086 73.0197 -15.5574 76.6266C-21.8383 78.6333 -27.6996 78.8825 -37.062 76.1282C-44.4574 73.8723 -50.2007 73.5313 -54.9344 77.2561Z" fill="white"/>
<path d="M54.2932 88.6649C54.2932 88.6649 59.3152 88.5469 65.8322 90.7897C72.3491 93.0194 79.797 95.1441 92.4506 89.6748C105.117 84.2055 121.128 83.1956 138.803 90.1208C133.781 86.2123 114.978 79.392 95.4272 86.9992C82.3933 92.3636 80.3478 93.7014 66.9468 89.7929C60.8101 87.996 56.5223 87.996 54.2932 88.6649Z" fill="white"/>
<path d="M-15.6231 104.141C-15.6231 104.141 -2.07785 98.1081 8.25484 100.626C18.5875 103.145 27.2418 105.479 32.2639 102.384C27.6614 103.302 23.19 103.302 12.4377 100.377C1.69856 97.426 -7.37532 99.0262 -15.6231 104.141Z" fill="white"/>
</g>
</svg>
