<svg width="140" height="140" viewBox="0 0 140 140" fill="none" xmlns="http://www.w3.org/2000/svg">
<path d="M140 70C140 108.66 108.66 140 70 140C31.3401 140 0 108.66 0 70C0 31.3401 31.3401 0 70 0C108.66 0 140 31.3401 140 70Z" fill="#91D3ED"/>
<mask id="mask0_107_1110" style="mask-type:alpha" maskUnits="userSpaceOnUse" x="0" y="0" width="140" height="140">
<circle cx="70" cy="70" r="70" fill="#D9D9D9"/>
</mask>
<g mask="url(#mask0_107_1110)">
<path d="M149.36 130.68H139.054C136.118 97.4834 108.828 71.3191 75.1947 70.2242V67.0697H77.8802C79.8341 67.0697 81.4084 65.4831 81.4084 63.5347C81.4084 61.577 79.8249 59.9998 77.8802 59.9998H68.1291C66.1752 59.9998 64.601 61.5863 64.601 63.5347C64.601 65.4924 66.1845 67.0697 68.1291 67.0697H70.8146V70.2242C37.1812 71.3191 9.89108 97.4834 6.95556 130.68H-3.35115C-6.47188 130.68 -8.99994 133.213 -8.99994 136.34C-8.99994 139.467 -6.47188 142 -3.35115 142H149.351C152.472 142 155 139.467 155 136.34C155.009 133.213 152.472 130.68 149.36 130.68Z" fill="#008ACB"/>
<mask id="mask1_107_1110" style="mask-type:luminance" maskUnits="userSpaceOnUse" x="39" y="83" width="68" height="58">
<path d="M106.592 83.9998H39.0001V140.214H106.592V83.9998Z" fill="white"/>
</mask>
<g mask="url(#mask1_107_1110)">
<path d="M94.2026 120.323C94.185 117.843 96.4712 87.9119 101.448 87.9119C101.448 152.84 101.448 88.3779 101.448 164.684C101.448 167.331 96.4975 167.084 96.6822 164.112L98.5991 132.967C98.942 127.384 94.2553 126.847 94.2026 120.323Z" fill="#91D3ED"/>
<path d="M52.1015 89.1605V107.512C52.1015 108.022 51.8202 108.435 51.4685 108.435C51.1167 108.435 50.8354 108.022 50.8354 107.512V89.1605C50.8354 88.4746 50.4485 87.9119 49.9824 87.9119C49.5076 87.9119 49.1295 88.4746 49.1295 89.1605V107.512C49.1295 108.022 48.8481 108.435 48.4964 108.435C48.1447 108.435 47.8633 108.022 47.8633 107.512V89.1605C47.8633 88.4746 47.4764 87.9119 47.0104 87.9119C46.5356 87.9119 46.1575 88.4746 46.1575 89.1605V107.512C46.1575 108.022 45.8761 108.435 45.5244 108.435C45.1726 108.435 44.8913 108.022 44.8913 107.512V89.1605C44.8913 88.4746 44.5044 87.9119 44.0383 87.9119H44.012C43.5547 87.9119 43.1766 88.4482 43.159 89.1165L42.7018 107.986C42.7018 108.022 42.7018 108.048 42.7018 108.083C42.6578 110.721 43.9944 113.201 46.1311 114.757C47.2654 116.269 47.0456 123.154 46.9752 125.397L45.7969 162.389C45.7354 164.64 46.9664 166.513 48.5052 166.513C50.044 166.513 51.275 164.64 51.2135 162.389L50.0352 125.397C49.9648 123.154 49.745 116.269 50.8793 114.757C53.0072 113.192 54.3438 110.721 54.3086 108.083C54.3086 108.048 54.3086 108.022 54.3086 107.986L53.8426 89.1165C53.825 88.4482 53.4469 87.9119 52.9896 87.9119H52.9633C52.4884 87.9119 52.1015 88.4658 52.1015 89.1605Z" fill="#91D3ED"/>
<path d="M84.3015 105.858C84.3015 97.6458 79.7995 87.9119 74.2511 87.9119C68.7027 87.9119 64.2006 97.6545 64.2006 105.858C64.2006 111.644 66.4341 115.126 69.6963 116.674C71.2263 117.404 72.2023 119.171 72.1319 121.106L70.6371 161.958C70.5492 164.288 72.0352 166.381 74.0312 166.513C76.1855 166.654 77.9441 164.596 77.8562 162.108L76.3614 121.106C76.291 119.171 77.2671 117.404 78.7971 116.674C82.0593 115.126 84.3015 111.644 84.3015 105.858Z" fill="white"/>
</g>
<path d="M68.7357 33.2284C70.0786 31.6508 70.8491 29.8603 70.8491 27.9524C70.8491 26.0445 70.086 24.254 68.7357 22.6763C67.3929 24.254 66.6224 26.0445 66.6224 27.9524C66.6224 29.8603 67.3929 31.6581 68.7357 33.2284Z" fill="#008ACB"/>
<path d="M68.7356 30.0732C71.6495 30.0732 74.0117 29.127 74.0117 27.9598C74.0117 26.7926 71.6495 25.8464 68.7356 25.8464C65.8217 25.8464 63.4595 26.7926 63.4595 27.9598C63.4595 29.127 65.8217 30.0732 68.7356 30.0732Z" fill="#008ACB"/>
<path d="M40.6963 52.5641C43.0298 49.827 44.358 46.7157 44.358 43.4135C44.358 40.1114 43.0298 37 40.6963 34.2629C38.3555 37 37.0273 40.1114 37.0273 43.4135C37.0273 46.7157 38.3555 49.8344 40.6963 52.5641Z" fill="white"/>
<path d="M40.6966 47.0751C45.7503 47.0751 49.8472 45.4357 49.8472 43.4134C49.8472 41.3911 45.7503 39.7517 40.6966 39.7517C35.6428 39.7517 31.546 41.3911 31.546 43.4134C31.546 45.4357 35.6428 47.0751 40.6966 47.0751Z" fill="white"/>
<path d="M100.135 48.8959C102.469 46.1588 103.797 43.0475 103.797 39.7453C103.797 36.4432 102.469 33.3318 100.135 30.5947C97.8017 33.3318 96.4735 36.4432 96.4735 39.7453C96.4735 43.0475 97.7944 46.1662 100.135 48.8959Z" fill="#008ACB"/>
<path d="M100.135 43.4074C105.189 43.4074 109.286 41.768 109.286 39.7457C109.286 37.7234 105.189 36.084 100.135 36.084C95.0814 36.084 90.9845 37.7234 90.9845 39.7457C90.9845 41.768 95.0814 43.4074 100.135 43.4074Z" fill="#008ACB"/>
</g>
</svg>
