<svg width="140" height="140" viewBox="0 0 140 140" fill="none" xmlns="http://www.w3.org/2000/svg">
<path d="M140 70C140 108.66 108.66 140 70 140C31.3401 140 0 108.66 0 70C0 31.3401 31.3401 0 70 0C108.66 0 140 31.3401 140 70Z" fill="#6BCBF0"/>
<mask id="mask0_107_1148" style="mask-type:alpha" maskUnits="userSpaceOnUse" x="0" y="0" width="140" height="140">
<circle cx="70" cy="70" r="70" fill="#D9D9D9"/>
</mask>
<g mask="url(#mask0_107_1148)">
<path d="M127.986 32.542H96.8746V77.5748H127.986V32.542Z" fill="#B6EAFF"/>
<path d="M93.0728 50.6685H63V77.6179H93.0728V50.6685Z" fill="#B6EAFF"/>
<path d="M158.517 50.8533H128.444V77.8027H158.517V50.8533Z" fill="#B6EAFF"/>
<path d="M158.517 77.8027C158.503 77.7886 158.489 77.6059 158.489 77.2828C158.475 76.8893 158.461 76.4116 158.447 75.8215C158.433 74.4867 158.405 72.632 158.363 70.3276C158.321 65.5644 158.264 58.8903 158.208 50.8673L158.517 51.1764C149.845 51.1905 139.516 51.2045 128.458 51.2326C128.374 51.3169 129.146 50.5441 128.823 50.8673V50.8813V50.8954V50.9235V50.9797V51.0921V51.3169V51.7806V52.6939C128.823 53.2981 128.823 53.9023 128.823 54.5064C128.823 55.7148 128.823 56.9091 128.823 58.0894C128.823 60.4499 128.823 62.7824 128.809 65.0445C128.795 69.5689 128.781 73.8544 128.781 77.8167L128.458 77.4935C137.341 77.5638 144.807 77.62 150.125 77.6621C152.721 77.7043 154.784 77.7324 156.286 77.7465C156.959 77.7605 157.507 77.7745 157.928 77.7886C158.307 77.7745 158.503 77.7886 158.517 77.8027C158.531 77.8167 158.349 77.8308 157.998 77.8448C157.577 77.8589 157.058 77.8729 156.412 77.887C154.939 77.901 152.89 77.9291 150.322 77.9713C144.947 78.0134 137.425 78.0696 128.444 78.1399H128.121V77.8167C128.107 73.8544 128.107 69.5689 128.093 65.0445C128.093 62.7824 128.093 60.464 128.079 58.0894C128.079 56.9091 128.079 55.7148 128.079 54.5064C128.079 53.9023 128.079 53.2981 128.079 52.6939V51.7806V51.3169V51.0921V50.9656V50.9094V50.8813V50.8673V50.8532C127.757 51.1764 128.528 50.4036 128.444 50.4879C139.502 50.502 149.831 50.5301 158.503 50.5441H158.812V50.8532C158.742 58.9465 158.685 65.7049 158.657 70.5103C158.629 72.8006 158.601 74.6131 158.573 75.9339C158.559 76.51 158.545 76.9737 158.531 77.339C158.545 77.6621 158.531 77.8167 158.517 77.8027Z" fill="#263238"/>
<path d="M81.0744 38.0788C80.6674 37.2357 79.9798 36.5051 79.1098 36.1819C77.7906 35.7042 76.2891 36.2241 75.1945 37.0812C73.3702 38.5003 72.3318 40.9311 72.7387 43.2073C73.1597 45.4836 75.1244 47.4366 77.4258 47.6755L76.4014 47.4085C78.0011 47.7457 79.6851 46.8465 80.5973 45.4976C81.5094 44.1487 81.762 42.4345 81.6778 40.8046C81.6357 39.8632 81.4813 38.9218 81.0744 38.0788Z" fill="#FF725E"/>
<g opacity="0.3">
<path d="M79.7133 41.7036C79.4607 41.1837 79.0397 40.72 78.4924 40.5233C77.6785 40.2282 76.7383 40.5514 76.0507 41.0853C74.914 41.9705 74.2685 43.488 74.5211 44.8931C74.7877 46.3122 76.0086 47.5347 77.44 47.6752L76.8085 47.5066C77.8048 47.7173 78.8573 47.1553 79.4186 46.3122C79.994 45.4692 80.1483 44.4013 80.0922 43.3897C80.0641 42.8136 79.9659 42.2235 79.7133 41.7036Z" fill="white"/>
</g>
<path d="M77.1733 46.2981C77.3698 46.2981 77.5382 47.38 77.5382 48.7148C77.5382 50.0497 77.3698 51.1316 77.1733 51.1316C76.9769 51.1316 76.8085 50.0497 76.8085 48.7148C76.8085 47.38 76.9769 46.2981 77.1733 46.2981Z" fill="#263238"/>
<path d="M116.731 20.0788C116.324 19.2357 115.637 18.5051 114.767 18.1819C113.448 17.7042 111.946 18.2241 110.852 19.0812C109.027 20.5003 107.989 22.9311 108.396 25.2073C108.817 27.4836 110.781 29.4366 113.083 29.6755L112.058 29.4085C113.658 29.7457 115.342 28.8465 116.254 27.4976C117.166 26.1487 117.419 24.4345 117.335 22.8046C117.293 21.8632 117.138 20.9218 116.731 20.0788Z" fill="#FF725E"/>
<g opacity="0.3">
<path d="M115.356 23.7038C115.104 23.1839 114.683 22.7203 114.135 22.5236C113.321 22.2285 112.381 22.5517 111.694 23.0856C110.557 23.9708 109.911 25.4883 110.164 26.8934C110.417 28.3125 111.651 29.5349 113.083 29.6754L112.451 29.5068C113.448 29.7176 114.5 29.1555 115.061 28.3125C115.637 27.4694 115.791 26.4016 115.735 25.3899C115.707 24.8138 115.609 24.2237 115.356 23.7038Z" fill="white"/>
</g>
<path d="M112.83 28.2983C113.027 28.2983 113.195 29.3803 113.195 30.7151C113.195 32.0499 113.027 33.1318 112.83 33.1318C112.634 33.1318 112.465 32.0499 112.465 30.7151C112.465 29.3803 112.62 28.2983 112.83 28.2983Z" fill="#263238"/>
<path d="M148.497 39.0788C148.09 38.2357 147.403 37.5051 146.533 37.1819C145.213 36.7042 143.712 37.2241 142.617 38.0812C140.793 39.5003 139.755 41.9311 140.162 44.2073C140.583 46.4836 142.547 48.4366 144.849 48.6755L143.824 48.4085C145.424 48.7457 147.108 47.8465 148.02 46.4976C148.932 45.1487 149.185 43.4345 149.101 41.8046C149.045 40.8632 148.904 39.9218 148.497 39.0788Z" fill="#FF725E"/>
<path d="M93.3394 50.3653C93.3394 50.562 86.5474 50.7306 78.1697 50.7306C69.792 50.7306 63 50.562 63 50.3653C63 50.1686 69.792 50 78.1697 50C86.5474 50 93.3394 50.1686 93.3394 50.3653Z" fill="#263238"/>
<path d="M128.309 32.6402C128.309 32.8369 121.194 33.0055 112.423 33.0055C103.653 33.0055 96.5379 32.8369 96.5379 32.6402C96.5379 32.4435 103.653 32.2749 112.423 32.2749C121.194 32.2749 128.309 32.4435 128.309 32.6402Z" fill="#263238"/>
<path d="M114.402 36.3636C114.416 36.3355 114.809 36.8554 114.542 37.853C114.402 38.3308 114.065 38.9209 113.392 39.2581C112.732 39.6094 111.764 39.5672 110.992 39.0192C110.613 38.7523 110.262 38.3308 110.108 37.839C109.953 37.3894 109.841 36.8976 109.617 36.6306C109.406 36.4199 109.111 36.4901 108.929 36.9397C108.761 37.3472 108.676 37.9233 108.564 38.4572C108.129 40.6491 108.059 43.0237 108.227 45.6512C108.213 46.3257 108.115 47.0703 107.652 47.6886C107.189 48.3068 106.375 48.5878 105.701 48.5035C105 48.4614 104.354 48.1242 103.891 47.7026C103.414 47.2671 103.063 46.7612 102.783 46.2554C101.66 44.2461 101.099 42.2509 100.86 40.5508C100.621 38.8506 100.678 37.4456 100.79 36.5042C100.902 35.5487 101.057 35.0429 101.099 35.0569C101.239 35.071 100.79 37.1645 101.365 40.4665C101.66 42.0964 102.263 44.0213 103.358 45.9182C103.891 46.8315 104.677 47.7307 105.758 47.7869C106.277 47.8291 106.782 47.6464 107.091 47.239C107.399 46.8315 107.498 46.2554 107.512 45.6372C107.343 43.108 107.428 40.5227 107.919 38.3308C108.059 37.7687 108.115 37.2629 108.368 36.6868C108.494 36.4199 108.69 36.1107 109.069 35.9702C109.434 35.8297 109.869 35.9843 110.094 36.2512C110.487 36.7711 110.529 37.2769 110.669 37.6844C110.781 38.0778 111.02 38.387 111.315 38.6258C111.918 39.0895 112.69 39.1598 113.237 38.9068C113.799 38.668 114.121 38.1762 114.29 37.7687C114.598 36.8976 114.332 36.3636 114.402 36.3636Z" fill="#263238"/>
<path d="M55.5473 77.5747H55C57.5259 81.0312 61.4973 83.3496 67.9946 83.6868H156.712C163.896 83.7008 167.489 80.6237 168.948 77.5747C127.565 77.5747 96.9167 77.5747 55.5473 77.5747Z" fill="#263238"/>
<path d="M164 84H-6V109H164V84Z" fill="#008ACB"/>
<path d="M32.5778 109L25 164.444H42.415L58.6933 109H32.5778Z" fill="#008ACB"/>
<path d="M147.534 108.557L155.112 164.001H137.697L121.419 108.557H147.534Z" fill="#008ACB"/>
<path d="M165.707 108.712C165.707 108.908 135.887 109.077 99.1061 109.077C62.3114 109.077 32.4912 108.908 32.4912 108.712C32.4912 108.515 62.3114 108.346 99.092 108.346C135.873 108.346 165.707 108.501 165.707 108.712Z" fill="#263238"/>
</g>
<g clip-path="url(#clip0_107_1148)">
<path d="M28.9956 84.0001C41.1435 84.0001 50.9913 80.3288 50.9913 75.8001C50.9913 71.2714 41.1435 67.6001 28.9956 67.6001C16.8478 67.6001 7 71.2714 7 75.8001C7 80.3288 16.8478 84.0001 28.9956 84.0001Z" fill="#263238"/>
<path d="M43.4846 60.2434C41.6407 58.5217 39.1065 57.7565 36.6246 57.2956C31.1803 56.2782 25.5176 56.4695 20.1607 57.8434C17.4604 58.5304 14.3843 60.0869 14.2095 62.8521C14.1047 64.426 15.031 65.8782 16.0884 67.0521C19.1208 70.3913 23.6213 72.3652 28.148 72.3304L24.3815 71.8608C29.3889 72.2086 34.4487 71.7652 39.3162 70.5652C41.5708 70.0086 43.9915 69.113 45.0751 67.0782C46.2636 64.8521 45.3285 61.9565 43.4846 60.2434Z" fill="#263238"/>
<path d="M35.0429 46.5218C34.2739 45.7913 33.2252 45.4696 32.194 45.2783C29.9307 44.8522 27.5799 44.9305 25.3515 45.5131C24.233 45.8087 22.9484 46.4609 22.8785 47.6348C22.8348 48.2957 23.2193 48.9131 23.6649 49.4087C24.9233 50.8261 26.8022 51.6609 28.681 51.6435L27.0993 51.4348C29.1791 51.5826 31.2852 51.4 33.3126 50.887C34.2477 50.6522 35.2614 50.2696 35.7071 49.4087C36.1964 48.4696 35.8119 47.2435 35.0429 46.5218Z" fill="#263238"/>
<path d="M29.9044 57.826C35.5368 57.826 40.1027 56.113 40.1027 53.9999C40.1027 51.8868 35.5368 50.1738 29.9044 50.1738C24.2721 50.1738 19.7062 51.8868 19.7062 53.9999C19.7062 56.113 24.2721 57.826 29.9044 57.826Z" fill="#263238"/>
<path d="M49.0425 72.5479C49.0163 72.5827 48.5881 72.261 47.7579 71.774C46.9277 71.2871 45.6868 70.6349 44.0701 70.0697C42.4534 69.4958 40.4522 69.0175 38.1889 68.7392C35.9255 68.4523 33.4175 68.374 30.7784 68.3566C28.1392 68.3479 25.6137 68.3305 23.3416 68.4262C21.0608 68.5219 19.0159 68.7653 17.3293 69.1045C15.6427 69.4436 14.3144 69.8784 13.4143 70.2262C12.5142 70.5653 12.0336 70.8001 12.0074 70.7653C11.9986 70.7479 12.1122 70.6784 12.3394 70.5566C12.5667 70.4349 12.89 70.2523 13.3444 70.061C14.227 69.661 15.5553 69.1653 17.2594 68.7827C18.9547 68.3914 21.0258 68.1219 23.3154 68.0001C25.6137 67.8784 28.1392 67.8784 30.7784 67.8871C33.4262 67.8958 35.9605 68.0001 38.2413 68.3045C40.5222 68.6088 42.5496 69.1305 44.1837 69.7479C45.8179 70.3653 47.0501 71.061 47.8628 71.6088C48.2648 71.8784 48.5706 72.1045 48.7629 72.2697C48.9551 72.4436 49.0513 72.5305 49.0425 72.5479Z" fill="#455A64"/>
<path d="M40.4522 58.3564C40.426 58.4347 39.1851 58.0434 37.1315 57.6347C35.0778 57.226 32.2028 56.8521 29.0131 56.913C25.8234 56.9825 22.9571 57.4695 20.9297 57.9564C18.8935 58.4434 17.6701 58.8869 17.6439 58.8086C17.6351 58.7825 17.9322 58.6434 18.4741 58.426C19.0159 58.1999 19.8286 57.9304 20.851 57.6434C22.8784 57.0695 25.771 56.5217 29.0131 56.4521C32.2464 56.3912 35.1565 56.8173 37.2101 57.313C38.2325 57.5564 39.054 57.7999 39.6133 57.9999C40.1638 58.2086 40.4609 58.3304 40.4522 58.3564Z" fill="#455A64"/>
<path d="M36.38 51.2696C36.345 51.4088 33.6098 50.4957 30.1055 50.4262C26.6012 50.3218 23.8223 51.087 23.796 50.9479C23.7786 50.8957 24.4515 50.6349 25.5875 50.3827C26.7236 50.1305 28.3315 49.9305 30.1142 49.974C31.8969 50.0262 33.4961 50.3131 34.6147 50.6175C35.742 50.9218 36.3974 51.2175 36.38 51.2696Z" fill="#455A64"/>
<path d="M21.8735 53.2435C21.9172 53.3652 21.5676 53.6 21.2006 53.9391C20.8248 54.2696 20.5539 54.5913 20.4403 54.5304C20.3267 54.4782 20.4578 54 20.8947 53.6C21.3317 53.2 21.8298 53.1217 21.8735 53.2435Z" fill="white"/>
<path d="M17.6526 60.5045C17.7313 60.6088 17.1982 61.0958 16.735 61.8175C16.2631 62.5393 16.0534 63.2175 15.9223 63.1914C15.8 63.1827 15.8262 62.3741 16.3505 61.5741C16.8749 60.7654 17.6002 60.4001 17.6526 60.5045Z" fill="white"/>
<path d="M10.1984 72.7738C10.2683 72.8869 9.49058 73.3738 9.06238 74.3564C8.60796 75.3217 8.76526 76.226 8.63417 76.2521C8.58174 76.2695 8.4594 76.0521 8.40696 75.6608C8.35453 75.2782 8.40696 74.7217 8.65165 74.1651C8.89634 73.6173 9.28958 73.2086 9.61292 72.9912C9.92752 72.7738 10.1722 72.7217 10.1984 72.7738Z" fill="white"/>
<path d="M26.0943 45.9653C26.1293 46.0958 25.5351 46.3219 24.9845 46.8262C24.4165 47.3132 24.1106 47.8697 23.9883 47.8262C23.8747 47.8001 24.0145 47.0697 24.6787 46.4871C25.3341 45.9045 26.0769 45.8436 26.0943 45.9653Z" fill="white"/>
</g>
<defs>
<clipPath id="clip0_107_1148">
<rect width="44" height="39" fill="white" transform="translate(7 45)"/>
</clipPath>
</defs>
</svg>
